<svg xmlns="http://www.w3.org/2000/svg" xmlns:xlink="http://www.w3.org/1999/xlink" viewBox="0 0 128 128"><style><![CDATA[.H{stroke:#33006f}.I{stroke-linejoin:round}.J{stroke-width:3}.K{stroke-linecap:round}.L{stroke-width:5.942}.M{stroke-width:3.961}]]></style><g fill="#fff" class="H I"><path d="M8.8 7.6h93.1v112.9H8.8z" class="L"/><path d="M24.6 19.4h25.7v29.7H24.6z" class="M"/><path d="M60.3 25.4H86m-25.7 9.9H86M24.6 65H86M24.6 76.9H86M24.6 88.8H86m-61.4 11.8H86" class="K L"/></g><path d="M40.6 42.8c-.6-.1-.6-1.9-.6-1.9s1.9-1.8 2.3-4.3c1 0 1.7-2.6.6-3.6 0-1 1.4-7.7-5.5-7.7-6.8.1-5.5 6.8-5.4 7.7-1.1 1-.4 3.6.7 3.6.4 2.5 2.3 4.3 2.3 4.3s0 1.7-.6 1.8c-2 .3-9.7 3.7-9.7 7.4h25.7c-.1-3.6-7.7-7-9.8-7.3z" fill="none" class="H I M"/><g fill="#fff" class="H I"><g stroke-width="5.149"><path d="M70.442 80.995l-8.9 1.414 1.273-9.05c.07-.495.354-1.06.707-1.414l46.67-46.67c1-1 2.546-1 3.536 0l4.88 4.88c1 1 1 2.546 0 3.536l-46.67 46.67c-.424.283-1 .566-1.485.636z"/><path d="M69.876 68.267l5.586 5.586m29.416-40.587l5.586 5.586" class="K"/></g><path d="M-83.8 43.6h21a4.95 4.95 0 0 1 5 5v30a4.95 4.95 0 0 1-5 5h-21a4.95 4.95 0 0 1-5-5v-30c0-2.7 2.2-5 5-5z" class="J"/></g><path d="M-84.83 53.672l10.392-6 3.5 6.062-10.392 6zM-80.8 71.6h12v7h-12zm5.907-5.895l1.812-6.76 11.6 3.106-1.812 6.76z" fill="none" class="H I J"/><g fill="#fff" class="H I J"><path d="M-80.8 83.6v4m15-4v4" class="K"/><path d="M-75.8 27.6h5a4.95 4.95 0 0 1 5 5v11h-15v-11c0-2.7 2.2-5 5-5z"/><path d="M-99.8 90.6h52" class="K"/><path d="M-100.8 33.6h23v27h-23z"/><path d="M-89.8 40.1h7m-7 6h7m-7 6h7" class="K"/></g><g fill="#33006f" stroke-width="1.5" class="H"><path d="M-93.7 38.7c.1.1.1.1.1.2s0 .2-.1.2l-1.6 2.4c-.1.1-.1.1-.2.1s-.2 0-.2-.1c0 0-.2-.1-.3-.3-.2-.2-.3-.4-.5-.6l-.2-.3c-.1-.1-.1-.1-.1-.2s0-.2.1-.2c.1-.1.1-.1.2-.1s.2 0 .2.1l.8.8 1.4-2.1c.1-.1.1-.1.2-.1 0 .1.1.2.2.2z"/><use xlink:href="#B"/><use xlink:href="#B" y="6"/></g><defs><path id="B" d="M-93.7 44.7c.1.1.1.1.1.2s0 .2-.1.2l-1.6 2.4c-.1.1-.1.1-.2.1s-.2 0-.2-.1c0 0-.2-.1-.3-.3-.2-.2-.3-.4-.5-.6l-.2-.3c-.1-.1-.1-.1-.1-.2s0-.2.1-.2.1-.1.2-.1.2 0 .2.1l.8.8 1.4-2.1c.1-.1.1-.1.2-.1 0 .1.1.2.2.2z"/></defs></svg>